<svg width="54" height="51" viewBox="0 0 54 51" fill="none" xmlns="http://www.w3.org/2000/svg">
<rect width="54" height="50.0455" rx="8" fill="#10B981" fill-opacity="0.08"/>
<path d="M21.4492 33.9545C20.3355 33.9545 19.3507 33.7727 18.4946 33.4091C17.6461 33.0379 16.9795 32.4773 16.4946 31.7273C16.0098 30.9773 15.7673 30.0227 15.7673 28.8636C15.7673 27.9091 15.9302 27.0947 16.256 26.4205C16.5817 25.7386 17.0363 25.1818 17.6196 24.75C18.2029 24.3182 18.881 23.9886 19.6537 23.7614C20.434 23.5341 21.2749 23.3864 22.1764 23.3182C23.1537 23.2424 23.9378 23.1515 24.5287 23.0455C25.1272 22.9318 25.559 22.7765 25.8242 22.5795C26.0893 22.375 26.2219 22.1061 26.2219 21.7727V21.7273C26.2219 21.2727 26.0476 20.9242 25.6992 20.6818C25.3507 20.4394 24.9037 20.3182 24.3582 20.3182C23.7598 20.3182 23.2711 20.4508 22.8923 20.7159C22.5211 20.9735 22.2976 21.3712 22.2219 21.9091H16.4492C16.5249 20.8485 16.862 19.8712 17.4605 18.9773C18.0666 18.0758 18.9492 17.3561 20.1082 16.8182C21.2673 16.2727 22.7143 16 24.4492 16C25.6992 16 26.8204 16.1477 27.8128 16.4432C28.8052 16.7311 29.6499 17.1364 30.3469 17.6591C31.0438 18.1742 31.5742 18.7803 31.9378 19.4773C32.309 20.1667 32.4946 20.9167 32.4946 21.7273V33.6818H26.631V31.2273H26.4946C26.1461 31.8788 25.7219 32.4053 25.2219 32.8068C24.7295 33.2083 24.1651 33.5 23.5287 33.6818C22.8999 33.8636 22.2067 33.9545 21.4492 33.9545ZM23.4946 30C23.9719 30 24.4188 29.9015 24.8355 29.7045C25.2598 29.5076 25.6045 29.2235 25.8696 28.8523C26.1348 28.4811 26.2673 28.0303 26.2673 27.5V26.0455C26.1007 26.1136 25.9226 26.178 25.7332 26.2386C25.5514 26.2992 25.3545 26.3561 25.1423 26.4091C24.9378 26.4621 24.7181 26.5114 24.4832 26.5568C24.256 26.6023 24.0173 26.6439 23.7673 26.6818C23.2825 26.7576 22.8848 26.8826 22.5742 27.0568C22.2711 27.2235 22.0438 27.4318 21.8923 27.6818C21.7484 27.9242 21.6764 28.197 21.6764 28.5C21.6764 28.9848 21.8469 29.3561 22.1878 29.6136C22.5287 29.8712 22.9643 30 23.4946 30Z" fill="#111827"/>
<path d="M39.0509 34.0455C38.1721 34.0455 37.4183 33.7386 36.7895 33.125C36.1683 32.5038 35.8615 31.75 35.869 30.8636C35.8615 30 36.1683 29.2614 36.7895 28.6477C37.4183 28.0341 38.1721 27.7273 39.0509 27.7273C39.8842 27.7273 40.619 28.0341 41.2554 28.6477C41.8993 29.2614 42.2251 30 42.2327 30.8636C42.2251 31.4545 42.0698 31.9924 41.7668 32.4773C41.4713 32.9545 41.0849 33.3371 40.6077 33.625C40.1304 33.9053 39.6115 34.0455 39.0509 34.0455Z" fill="#10B981"/>
</svg>
